# xmcd CD database file
#
# Track frame offsets:
#	150
#	23273
#	46047
#	63909
#	89216
#	108511
#	128254
#	140645
#	159779
#	184874
#	209178
#	225185
#
# Disc length: 3306 seconds
#
# Revision: 0
# Processed by: cddbd v1.5.1PL0 Copyright (c) Steve Scherf et al.
# Submitted via: CDex 1.51
#
DISCID=940ce80c
DTITLE=Doug MacLeod - Dubb
DYEAR=2004
DGENRE=Blues
TTITLE0=(If You Going To The) Dog House
TTITLE1=Walkin' While I Bleed
TTITLE2=She Boogy'n
TTITLE3=The Sun Shine Down My Way
TTITLE4=Dubb's Talkin' Politician Blues
TTITLE5=Miss Rita
TTITLE6=One Fool Show
TTITLE7=$50 Wig
TTITLE8=Have A Little Taste
TTITLE9=Night Walking
TTITLE10=North County Woman
TTITLE11=The Devil Is Beating His Wife
EXTD=YEAR: 2004
EXTT0=
EXTT1=
EXTT2=
EXTT3=
EXTT4=
EXTT5=
EXTT6=
EXTT7=
EXTT8=
EXTT9=
EXTT10=
EXTT11=
PLAYORDER=
